<svg viewBox="0 0 400 120" preserveAspectRatio="xMidYMid meet"  xmlns="http://www.w3.org/2000/svg">
<path fill-rule="evenodd" clip-rule="evenodd" d="M248.839 0L208.268 28.1146L233.768 44.9514L233.66 45.4491L196.707 94.0437L278.243 37.5359L252.573 20.5784L267.885 0.442165C276.032 1.50278 282.664 4.47146 287.783 9.34821C291.375 12.743 293.982 16.6817 295.601 21.1642L300.104 0H324.826L355.189 61.1883H355.807L368.709 0H399.998L376.28 111.483H351.557L321.195 50.2949H320.577L307.675 111.483H283.765H276.386H249.617L239.11 74.0903H227.599L219.641 111.483H186.884L191.947 87.6846C188.839 94.0128 184.306 99.3189 178.348 103.603C169.18 110.144 158.133 113.415 145.205 113.415C130.629 113.415 119.066 109.964 110.516 103.062C105.77 99.2025 102.341 94.6764 100.23 89.4839C98.2643 93.997 95.2167 98.008 91.0871 101.517C83.2068 108.161 73.189 111.483 61.0337 111.483H0L23.7182 0H75.4037C86.0653 0 94.2546 2.21473 99.9717 6.64418C104.841 10.4167 107.637 15.1045 108.359 20.7076L112.756 0H145.514L131.53 65.901C131.066 68.0642 130.835 70.0472 130.835 71.8499C130.835 76.1763 132.328 79.6014 135.316 82.1252C138.354 84.5974 142.114 85.8335 146.595 85.8335C156.175 85.8335 162.15 80.3225 164.519 69.3003L179.121 0H210.602H211.878H248.839ZM104.639 38.223C103.693 39.7724 102.575 41.2468 101.285 42.6464C96.4436 47.8999 90.1085 51.2477 82.2797 52.6899L82.2024 53.308C88.28 54.6986 93.2503 57.4284 97.1132 61.4973C97.8745 62.2891 98.5608 63.1118 99.1721 63.9656L104.639 38.223ZM279.416 97.2393L287.28 60.2777C283.09 64.9238 277.798 68.4978 271.404 71L279.416 97.2393ZM46.5093 42.9554L51.2993 20.3188H63.9695C67.8324 20.3188 70.794 21.1687 72.8542 22.8683C74.9144 24.568 75.9445 26.8342 75.9445 29.667C75.9445 33.5299 74.5024 36.7233 71.6181 39.247C68.7853 41.7193 65.0512 42.9554 60.4157 42.9554H46.5093ZM52.6899 89.0011H36.7748L42.1828 63.2742H56.5528C60.9822 63.2742 64.3816 64.2271 66.7508 66.1328C69.1201 67.987 70.3047 70.5622 70.3047 73.8586C70.3047 78.494 68.708 82.1767 65.5147 84.9064C62.3729 87.6362 58.0979 89.0011 52.6899 89.0011Z" fill="white"/>
</svg>
