<svg width="31" height="31" viewBox="0 0 31 31" fill="none" xmlns="http://www.w3.org/2000/svg">
<g clip-path="url(#clip0_582_1245)">
<path d="M30.5 15.5C30.5 7.21578 23.7842 0.5 15.5 0.5C7.21578 0.5 0.5 7.21566 0.5 15.5C0.5 22.9869 5.98531 29.1925 13.1562 30.3178V19.8359H9.34766V15.5H13.1562V12.1953C13.1562 8.43594 15.3957 6.35938 18.8219 6.35938C20.4631 6.35938 22.1797 6.65234 22.1797 6.65234V10.3438H20.2883C18.4248 10.3438 17.8438 11.5 17.8438 12.6863V15.5H22.0039L21.3389 19.8359H17.8438V30.3178C25.0147 29.1925 30.5 22.987 30.5 15.5Z" fill="#1877F2"/>
<path d="M21.3389 19.8359L22.0039 15.5H17.8438V12.6863C17.8438 11.4999 18.4249 10.3438 20.2883 10.3438H22.1797V6.65234C22.1797 6.65234 20.4631 6.35938 18.8219 6.35938C15.3957 6.35938 13.1562 8.43594 13.1562 12.1953V15.5H9.34766V19.8359H13.1562V30.3178C13.9316 30.4393 14.7152 30.5002 15.5 30.5C16.2848 30.5002 17.0684 30.4393 17.8438 30.3178V19.8359H21.3389Z" fill="white"/>
</g>
<defs>
<clipPath id="clip0_582_1245">
<rect width="30" height="30" fill="white" transform="translate(0.5 0.5)"/>
</clipPath>
</defs>
</svg>
