<svg width="31" height="31" viewBox="0 0 31 31" fill="none" xmlns="http://www.w3.org/2000/svg">
<path d="M27.7569 13.0519H26.75V13H15.5V18H22.5644C21.5338 20.9106 18.7644 23 15.5 23C11.3581 23 8 19.6419 8 15.5C8 11.3581 11.3581 8 15.5 8C17.4119 8 19.1513 8.72125 20.4756 9.89937L24.0112 6.36375C21.7787 4.28312 18.7925 3 15.5 3C8.59688 3 3 8.59688 3 15.5C3 22.4031 8.59688 28 15.5 28C22.4031 28 28 22.4031 28 15.5C28 14.6619 27.9137 13.8438 27.7569 13.0519Z" fill="#FFC107"/>
<path d="M4.44141 9.68188L8.54828 12.6938C9.65953 9.9425 12.3508 8 15.5002 8C17.412 8 19.1514 8.72125 20.4758 9.89937L24.0114 6.36375C21.7789 4.28312 18.7927 3 15.5002 3C10.6989 3 6.53516 5.71062 4.44141 9.68188Z" fill="#FF3D00"/>
<path d="M15.4992 27.9995C18.728 27.9995 21.6617 26.7638 23.8798 24.7545L20.0111 21.4807C18.7139 22.4672 17.1289 23.0007 15.4992 22.9995C12.248 22.9995 9.48734 20.9263 8.44734 18.0332L4.37109 21.1738C6.43984 25.222 10.6411 27.9995 15.4992 27.9995Z" fill="#4CAF50"/>
<path d="M27.7569 13.0519H26.75V13H15.5V18H22.5644C22.0714 19.3853 21.1833 20.5957 20.01 21.4819L20.0119 21.4806L23.8806 24.7544C23.6069 25.0031 28 21.75 28 15.5C28 14.6619 27.9137 13.8438 27.7569 13.0519Z" fill="#1976D2"/>
</svg>
